<?xml version="1.0" encoding="utf-8"?>
<!-- Generator: Adobe Illustrator 25.4.1, SVG Export Plug-In . SVG Version: 6.00 Build 0)  -->
<svg version="1.1" id="Layer_1" xmlns="http://www.w3.org/2000/svg" xmlns:xlink="http://www.w3.org/1999/xlink" x="0px" y="0px"
	 viewBox="0 0 203.67 263.3" style="enable-background:new 0 0 203.67 263.3;" xml:space="preserve">
<style type="text/css">
	.st0{fill:#E7362C;}
	.st1{fill:#CAC9C9;}
</style>
<g>
	<path class="st0" d="M4.96,61.35h52.52v50.99c0,44.74,16.29,56.41,38.91,56.41c22.94,0,40.17-11.67,40.12-56.41V61.35h51.32v57.56
		c0,57.49-32.81,96.46-93.34,96.46c-58.62,0-89.52-38.97-89.52-96.76V61.35z"/>
</g>
<rect x="4.96" y="43.4" class="st0" width="52.77" height="8.59"/>
<rect x="4.96" y="43.4" class="st0" width="52.77" height="8.59"/>
<rect x="4.96" y="26.66" class="st0" width="52.77" height="8.59"/>
<rect x="4.96" y="9.31" class="st0" width="52.77" height="8.59"/>
<g>
	<path class="st1" d="M95.82,9.14v44.08H85.54l-6.1-20.04v20.04h-9.81V9.14h9.81l6.58,19.85V9.14H95.82z"/>
	<path class="st1" d="M100.53,9.14h19.56v8.82h-7.83v8.36h7.33v8.39h-7.33v9.69h8.61v8.82h-20.34V9.14z"/>
	<path class="st1" d="M168.42,9.14l-5.22,44.08h-14.65c-1.34-6.77-2.52-14.48-3.55-23.11c-0.47,3.7-1.56,11.41-3.27,23.11h-14.56
		l-5.25-44.08h11.4l1.24,15.38l1.2,14.87c0.43-7.69,1.51-17.78,3.24-30.25h12.18c0.16,1.29,0.59,6.14,1.28,14.54l1.3,16.77
		c0.67-10.67,1.76-21.11,3.27-31.31H168.42z"/>
	<path class="st1" d="M195.59,22.48h-10.9v-3.27c0-1.52-0.14-2.5-0.42-2.91c-0.28-0.42-0.74-0.63-1.39-0.63
		c-0.71,0-1.24,0.28-1.6,0.84s-0.54,1.42-0.54,2.56c0,1.47,0.2,2.58,0.61,3.32c0.39,0.75,1.49,1.64,3.32,2.69
		c5.22,3.03,8.51,5.51,9.87,7.46c1.36,1.94,2.03,5.07,2.03,9.39c0,3.14-0.38,5.45-1.13,6.94c-0.75,1.49-2.21,2.74-4.36,3.74
		c-2.16,1.01-4.66,1.51-7.52,1.51c-3.14,0-5.82-0.58-8.04-1.74c-2.22-1.16-3.67-2.64-4.36-4.44c-0.69-1.8-1.03-4.35-1.03-7.65v-2.89
		h10.9v5.36c0,1.65,0.15,2.71,0.46,3.19c0.31,0.47,0.85,0.71,1.63,0.71c0.78,0,1.36-0.3,1.74-0.9c0.38-0.6,0.57-1.49,0.57-2.67
		c0-2.6-0.36-4.29-1.09-5.09c-0.74-0.8-2.57-2.13-5.49-4c-2.92-1.89-4.85-3.26-5.8-4.11c-0.95-0.85-1.73-2.03-2.35-3.54
		c-0.62-1.51-0.93-3.43-0.93-5.77c0-3.38,0.44-5.84,1.32-7.41c0.88-1.56,2.31-2.78,4.28-3.66c1.97-0.88,4.35-1.32,7.13-1.32
		c3.05,0,5.64,0.48,7.79,1.44c2.15,0.96,3.57,2.17,4.26,3.63c0.7,1.46,1.05,3.94,1.05,7.45V22.48z"/>
</g>
<path class="st1" d="M198.71,157.08v68.73h-73.64c6.68-0.22,27.62-2.97,46.64-18.85C194.76,187.71,198.12,162.67,198.71,157.08z"/>
<g>
	<path class="st1" d="M6.19,252.53c0.33,0.11,0.65,0.19,0.95,0.24c0.3,0.05,0.59,0.08,0.88,0.08c0.6,0,1.15-0.1,1.64-0.29
		c0.49-0.2,0.93-0.48,1.32-0.85c0.38-0.34,0.7-0.75,0.99-1.22c0.28-0.47,0.51-0.99,0.68-1.55c0.15-0.49,0.25-0.99,0.31-1.49
		c0.06-0.5,0.09-1.02,0.09-1.56l-0.01-3.81h2.22l0.02,3.73c0,0.66-0.03,1.31-0.1,1.94c-0.07,0.63-0.2,1.25-0.39,1.87
		c-0.24,0.73-0.54,1.42-0.92,2.06c-0.38,0.64-0.83,1.2-1.36,1.69c-0.59,0.53-1.25,0.95-1.98,1.26c-0.74,0.31-1.55,0.47-2.44,0.47
		c-0.4,0-0.81-0.03-1.24-0.1c-0.42-0.07-0.86-0.17-1.3-0.31L6.19,252.53z"/>
	<path class="st1" d="M22.46,250.65h-3.93c-0.31,0-0.57-0.11-0.79-0.33c-0.22-0.22-0.32-0.48-0.32-0.79v-13.59h2.24v12.46h2.81
		V250.65z"/>
	<path class="st1" d="M26.96,241.68v6.73h2.47v2.24h-7.18v-2.24h2.47v-6.73H26.96z M25.86,252.29c0.34,0,0.63,0.12,0.87,0.35
		c0.24,0.23,0.36,0.52,0.36,0.88c0,0.16-0.03,0.32-0.1,0.47c-0.07,0.15-0.15,0.28-0.26,0.39c-0.11,0.11-0.24,0.2-0.39,0.26
		c-0.15,0.07-0.31,0.1-0.48,0.1c-0.17,0-0.33-0.03-0.48-0.1c-0.15-0.07-0.28-0.15-0.39-0.26c-0.11-0.11-0.2-0.24-0.26-0.39
		c-0.06-0.15-0.09-0.3-0.09-0.47c0-0.35,0.12-0.64,0.35-0.88C25.23,252.4,25.51,252.29,25.86,252.29z"/>
	<path class="st1" d="M45.15,248.4c-0.16-0.75-0.46-1.39-0.89-1.93c-0.43-0.53-0.95-0.98-1.56-1.32c-0.6-0.35-1.27-0.61-1.99-0.78
		c-0.72-0.18-1.45-0.29-2.19-0.34c-0.7-0.03-1.41-0.01-2.11,0.05c-0.71,0.07-1.39,0.21-2.04,0.44c-0.37,0.11-0.72,0.25-1.05,0.4
		c-0.34,0.15-0.65,0.34-0.94,0.55l-1.27-1.85c0.46-0.31,0.96-0.59,1.49-0.83c0.54-0.24,1.09-0.43,1.65-0.57
		c0.7-0.19,1.43-0.32,2.18-0.39c0.75-0.07,1.5-0.09,2.24-0.04c0.74,0.05,1.48,0.16,2.21,0.32c0.73,0.17,1.42,0.4,2.06,0.69
		c0.65,0.29,1.25,0.64,1.8,1.05c0.55,0.41,1.03,0.88,1.43,1.4c0.4,0.53,0.71,1.11,0.94,1.76c0.22,0.65,0.34,1.35,0.34,2.11
		l-0.09,1.52H29.23v-2.24H45.15z M37.61,237.77c0.17,0,0.33,0.03,0.48,0.09c0.15,0.06,0.28,0.15,0.39,0.26
		c0.11,0.11,0.2,0.24,0.26,0.39c0.06,0.15,0.09,0.31,0.09,0.48c0,0.16-0.03,0.32-0.09,0.47c-0.06,0.15-0.15,0.28-0.26,0.39
		c-0.11,0.11-0.24,0.2-0.39,0.26c-0.15,0.07-0.31,0.1-0.48,0.1c-0.17,0-0.33-0.03-0.48-0.1c-0.15-0.06-0.28-0.15-0.39-0.26
		c-0.11-0.11-0.2-0.24-0.26-0.39c-0.06-0.15-0.09-0.3-0.09-0.47c0-0.35,0.12-0.64,0.36-0.88C36.97,237.88,37.26,237.77,37.61,237.77
		z"/>
	<path class="st1" d="M52.54,235.6H48.7v-0.85h0.59c-0.03-0.07-0.05-0.14-0.06-0.21c-0.01-0.08-0.01-0.15-0.01-0.23
		c0-0.17,0.03-0.34,0.1-0.5c0.07-0.16,0.16-0.3,0.29-0.44c0.13-0.13,0.28-0.23,0.45-0.31c0.18-0.08,0.37-0.12,0.59-0.12
		c0.2,0,0.4,0,0.62-0.01c0.22,0,0.42-0.01,0.61-0.01v0.85h-1.21c-0.19,0-0.34,0.05-0.45,0.16c-0.11,0.11-0.17,0.22-0.17,0.36
		c0,0.14,0.07,0.25,0.2,0.33c0.13,0.08,0.37,0.12,0.7,0.12h1.59V235.6z M62.09,235.89l-0.01,8.31c-0.01,0.81-0.13,1.57-0.37,2.29
		c-0.24,0.71-0.58,1.35-1.02,1.92h3.03v2.24H49.47v-2.24l6.92,0.01h0.09c-0.19-1.13-0.45-2.17-0.77-3.14
		c-0.33-0.97-0.75-1.85-1.26-2.64c-0.3-0.46-0.64-0.88-1.02-1.28c-0.38-0.4-0.8-0.75-1.27-1.08c-0.47-0.32-0.99-0.61-1.56-0.86
		c-0.57-0.25-1.19-0.47-1.87-0.64l0.55-2.18c0.83,0.21,1.6,0.48,2.29,0.79c0.69,0.31,1.33,0.68,1.91,1.08
		c0.58,0.41,1.1,0.86,1.57,1.35c0.47,0.49,0.89,1.03,1.26,1.6c0.56,0.87,1.02,1.8,1.38,2.81c0.36,1,0.65,2.08,0.88,3.23
		c0.39-0.39,0.7-0.87,0.93-1.43c0.23-0.56,0.34-1.17,0.34-1.83v-8.31H62.09z"/>
	<path class="st1" d="M63.42,248.4h2.94v-12.46h2.24v13.59c0,0.31-0.11,0.57-0.32,0.79c-0.22,0.22-0.48,0.33-0.79,0.33h-4.07V248.4z
		"/>
	<path class="st0" d="M75.05,252.53c0.33,0.11,0.65,0.19,0.95,0.24c0.3,0.05,0.59,0.08,0.88,0.08c0.6,0,1.15-0.1,1.64-0.29
		c0.49-0.2,0.93-0.48,1.32-0.85c0.38-0.34,0.7-0.75,0.99-1.22c0.28-0.47,0.51-0.99,0.68-1.55c0.15-0.49,0.25-0.99,0.31-1.49
		c0.06-0.5,0.09-1.02,0.09-1.56l-0.01-3.81h2.22l0.02,3.73c0,0.66-0.03,1.31-0.1,1.94c-0.07,0.63-0.2,1.25-0.39,1.87
		c-0.24,0.73-0.54,1.42-0.92,2.06c-0.38,0.64-0.83,1.2-1.36,1.69c-0.59,0.53-1.25,0.95-1.98,1.26c-0.74,0.31-1.55,0.47-2.44,0.47
		c-0.4,0-0.81-0.03-1.24-0.1c-0.42-0.07-0.86-0.17-1.3-0.31L75.05,252.53z M81.87,237.31c0.34,0,0.63,0.11,0.87,0.34
		c0.24,0.23,0.36,0.52,0.36,0.88c0,0.16-0.03,0.32-0.1,0.47c-0.07,0.15-0.15,0.28-0.26,0.39c-0.11,0.11-0.24,0.2-0.39,0.26
		c-0.15,0.07-0.31,0.1-0.48,0.1c-0.17,0-0.33-0.03-0.48-0.1c-0.15-0.07-0.28-0.15-0.39-0.26c-0.11-0.11-0.2-0.24-0.26-0.39
		c-0.06-0.15-0.09-0.3-0.09-0.47c0-0.36,0.12-0.65,0.35-0.88C81.24,237.43,81.53,237.31,81.87,237.31z"/>
	<path class="st0" d="M99.14,250.65h-2.73c-0.47,0.87-1.1,1.66-1.87,2.36c-0.73,0.64-1.57,1.14-2.54,1.51
		c-0.97,0.37-2.05,0.56-3.25,0.56c-0.47,0-0.96-0.03-1.46-0.09c-0.5-0.06-1.02-0.16-1.56-0.3l0.53-2.16
		c0.91,0.21,1.74,0.32,2.49,0.32c0.91,0,1.73-0.14,2.45-0.41c0.72-0.27,1.35-0.64,1.89-1.11c0.11-0.11,0.23-0.22,0.34-0.33
		c0.11-0.11,0.22-0.23,0.32-0.36h-0.69c-0.33,0-0.7-0.01-1.11-0.02c-0.42-0.02-0.81-0.04-1.18-0.09c-0.92-0.09-1.71-0.29-2.38-0.59
		c-0.67-0.31-1.23-0.68-1.67-1.13c-0.44-0.45-0.77-0.94-0.98-1.48c-0.21-0.54-0.32-1.1-0.32-1.66c0-0.66,0.14-1.32,0.41-1.97
		c0.27-0.65,0.67-1.23,1.18-1.74c0.51-0.51,1.14-0.93,1.87-1.24c0.73-0.32,1.57-0.48,2.5-0.48c0.93,0,1.77,0.16,2.52,0.48
		c0.75,0.32,1.39,0.76,1.92,1.31c0.53,0.55,0.94,1.19,1.23,1.92c0.29,0.73,0.44,1.51,0.44,2.32c0,0.71-0.08,1.42-0.25,2.12h1.9
		V250.65z M94.92,248.4c0.11-0.34,0.2-0.68,0.25-1.03c0.05-0.35,0.07-0.71,0.07-1.08c0-0.52-0.09-1.02-0.26-1.48
		c-0.18-0.47-0.43-0.87-0.76-1.22c-0.33-0.35-0.74-0.62-1.22-0.82c-0.48-0.2-1.03-0.3-1.63-0.3c-0.58,0-1.1,0.09-1.56,0.28
		c-0.46,0.19-0.85,0.43-1.17,0.73c-0.32,0.3-0.56,0.64-0.74,1.02c-0.17,0.38-0.26,0.77-0.26,1.16c0,0.31,0.06,0.61,0.19,0.91
		c0.13,0.29,0.32,0.56,0.59,0.8c0.27,0.24,0.61,0.45,1.03,0.61c0.42,0.17,0.93,0.28,1.51,0.34c0.15,0.02,0.29,0.03,0.44,0.04
		c0.15,0.01,0.3,0.02,0.46,0.02c0.16,0,0.34,0.01,0.53,0.01c0.19,0,0.41,0.01,0.64,0.01H94.92z"/>
	<path class="st0" d="M103.62,241.68v6.73h2.47v2.24h-7.18v-2.24h2.47v-6.73H103.62z M100.95,252.29c0.17,0,0.33,0.03,0.48,0.09
		c0.15,0.06,0.28,0.15,0.39,0.26c0.11,0.11,0.2,0.24,0.26,0.39c0.07,0.15,0.1,0.31,0.1,0.48c0,0.16-0.03,0.32-0.1,0.47
		c-0.07,0.15-0.15,0.28-0.26,0.39c-0.11,0.11-0.24,0.2-0.39,0.26c-0.15,0.07-0.31,0.1-0.48,0.1c-0.17,0-0.33-0.03-0.48-0.1
		c-0.15-0.07-0.28-0.15-0.39-0.26c-0.11-0.11-0.2-0.24-0.26-0.39c-0.06-0.15-0.09-0.3-0.09-0.47c0-0.35,0.12-0.64,0.35-0.88
		C100.32,252.4,100.61,252.29,100.95,252.29z M104.08,252.29c0.17,0,0.33,0.03,0.48,0.09c0.15,0.06,0.28,0.15,0.39,0.26
		c0.11,0.11,0.2,0.24,0.26,0.39c0.07,0.15,0.1,0.31,0.1,0.48c0,0.16-0.03,0.32-0.1,0.47c-0.07,0.15-0.15,0.28-0.26,0.39
		c-0.11,0.11-0.24,0.2-0.39,0.26c-0.15,0.07-0.31,0.1-0.48,0.1c-0.17,0-0.33-0.03-0.48-0.1c-0.15-0.07-0.28-0.15-0.39-0.26
		c-0.11-0.11-0.2-0.24-0.26-0.39c-0.06-0.15-0.09-0.3-0.09-0.47c0-0.35,0.12-0.64,0.35-0.88
		C103.45,252.4,103.73,252.29,104.08,252.29z"/>
	<path class="st0" d="M105.89,248.4h4.04v-6.73h2.24v7.85c0,0.31-0.11,0.57-0.33,0.79c-0.22,0.22-0.48,0.33-0.79,0.33h-5.17V248.4z
		 M109.5,237.77c0.17,0,0.33,0.03,0.48,0.09c0.15,0.06,0.28,0.15,0.39,0.26c0.11,0.11,0.2,0.24,0.26,0.39
		c0.07,0.15,0.1,0.31,0.1,0.48c0,0.16-0.03,0.32-0.1,0.47c-0.07,0.15-0.15,0.28-0.26,0.39c-0.11,0.11-0.24,0.2-0.39,0.26
		c-0.15,0.07-0.31,0.1-0.48,0.1c-0.17,0-0.33-0.03-0.48-0.1c-0.15-0.06-0.28-0.15-0.39-0.26c-0.11-0.11-0.2-0.24-0.26-0.39
		c-0.06-0.15-0.09-0.3-0.09-0.47c0-0.35,0.12-0.64,0.35-0.88C108.87,237.88,109.16,237.77,109.5,237.77z"/>
	<path class="st0" d="M127.44,250.65h-2.73c-0.47,0.87-1.1,1.66-1.87,2.36c-0.73,0.64-1.57,1.14-2.54,1.51
		c-0.97,0.37-2.05,0.56-3.25,0.56c-0.47,0-0.96-0.03-1.46-0.09c-0.5-0.06-1.02-0.16-1.56-0.3l0.53-2.16
		c0.92,0.21,1.74,0.32,2.49,0.32c0.91,0,1.73-0.14,2.45-0.41c0.72-0.27,1.35-0.64,1.89-1.11c0.11-0.11,0.23-0.22,0.34-0.33
		c0.11-0.11,0.22-0.23,0.32-0.36h-0.69c-0.33,0-0.7-0.01-1.11-0.02c-0.42-0.02-0.81-0.04-1.18-0.09c-0.91-0.09-1.71-0.29-2.38-0.59
		c-0.67-0.31-1.23-0.68-1.67-1.13c-0.44-0.45-0.77-0.94-0.98-1.48c-0.21-0.54-0.32-1.1-0.32-1.66c0-0.66,0.14-1.32,0.41-1.97
		c0.27-0.65,0.67-1.23,1.18-1.74c0.51-0.51,1.14-0.93,1.87-1.24c0.73-0.32,1.57-0.48,2.5-0.48c0.93,0,1.77,0.16,2.52,0.48
		c0.75,0.32,1.39,0.76,1.92,1.31c0.53,0.55,0.94,1.19,1.23,1.92c0.29,0.73,0.43,1.51,0.43,2.32c0,0.71-0.08,1.42-0.24,2.12h1.9
		V250.65z M123.23,248.4c0.11-0.34,0.2-0.68,0.24-1.03c0.05-0.35,0.07-0.71,0.07-1.08c0-0.52-0.09-1.02-0.26-1.48
		c-0.18-0.47-0.43-0.87-0.76-1.22c-0.33-0.35-0.74-0.62-1.22-0.82c-0.48-0.2-1.03-0.3-1.63-0.3c-0.58,0-1.1,0.09-1.56,0.28
		c-0.46,0.19-0.85,0.43-1.17,0.73c-0.32,0.3-0.56,0.64-0.73,1.02c-0.17,0.38-0.26,0.77-0.26,1.16c0,0.31,0.06,0.61,0.19,0.91
		c0.13,0.29,0.32,0.56,0.59,0.8c0.27,0.24,0.61,0.45,1.03,0.61c0.42,0.17,0.93,0.28,1.51,0.34c0.15,0.02,0.29,0.03,0.44,0.04
		c0.15,0.01,0.3,0.02,0.46,0.02c0.16,0,0.34,0.01,0.53,0.01c0.19,0,0.41,0.01,0.64,0.01H123.23z"/>
	<path class="st0" d="M127.16,248.4h4.04v-6.73h2.24v7.85c0,0.31-0.11,0.57-0.33,0.79c-0.22,0.22-0.48,0.33-0.79,0.33h-5.17V248.4z
		 M128.59,252.29c0.17,0,0.33,0.03,0.48,0.09c0.15,0.06,0.28,0.15,0.39,0.26c0.11,0.11,0.2,0.24,0.26,0.39
		c0.06,0.15,0.09,0.31,0.09,0.48c0,0.16-0.03,0.32-0.09,0.47c-0.06,0.15-0.15,0.28-0.26,0.39c-0.11,0.11-0.24,0.2-0.39,0.26
		c-0.15,0.07-0.31,0.1-0.48,0.1s-0.33-0.03-0.48-0.1s-0.28-0.15-0.39-0.26c-0.11-0.11-0.2-0.24-0.26-0.39
		c-0.06-0.15-0.09-0.3-0.09-0.47c0-0.35,0.12-0.64,0.36-0.88C127.96,252.4,128.25,252.29,128.59,252.29z M131.72,252.29
		c0.17,0,0.33,0.03,0.48,0.09c0.15,0.06,0.28,0.15,0.39,0.26c0.11,0.11,0.2,0.24,0.26,0.39c0.06,0.15,0.09,0.31,0.09,0.48
		c0,0.16-0.03,0.32-0.09,0.47c-0.06,0.15-0.15,0.28-0.26,0.39c-0.11,0.11-0.24,0.2-0.39,0.26c-0.15,0.07-0.31,0.1-0.48,0.1
		s-0.33-0.03-0.48-0.1c-0.15-0.07-0.28-0.15-0.39-0.26c-0.11-0.11-0.2-0.24-0.26-0.39c-0.06-0.15-0.09-0.3-0.09-0.47
		c0-0.35,0.12-0.64,0.36-0.88C131.08,252.4,131.37,252.29,131.72,252.29z"/>
	<path class="st0" d="M150.68,240.51h2.24v7.89h1.72v2.24h-14.18l-0.05-1.08v-0.32c0-0.22,0.03-0.51,0.09-0.86
		c0.06-0.36,0.17-0.76,0.32-1.21c0.15-0.45,0.39-0.92,0.69-1.4c0.31-0.48,0.7-0.95,1.19-1.42c0.49-0.47,1.1-0.9,1.83-1.29
		c0.73-0.39,1.6-0.71,2.61-0.97c1.01-0.26,2.18-0.42,3.52-0.49V240.51z M150.68,248.4v-4.55c-0.99,0.06-1.86,0.17-2.62,0.34
		c-0.76,0.17-1.42,0.38-1.98,0.63c-0.56,0.25-1.04,0.53-1.43,0.84c-0.39,0.31-0.71,0.62-0.97,0.94s-0.45,0.63-0.59,0.94
		c-0.14,0.31-0.25,0.59-0.31,0.85H150.68z M145.27,237.16c0.34,0,0.63,0.11,0.86,0.34c0.23,0.23,0.35,0.52,0.35,0.88
		c0,0.16-0.03,0.32-0.09,0.47c-0.06,0.15-0.15,0.28-0.26,0.39c-0.11,0.11-0.24,0.2-0.39,0.26c-0.15,0.07-0.31,0.1-0.48,0.1
		c-0.17,0-0.33-0.03-0.48-0.1c-0.15-0.07-0.28-0.15-0.39-0.26c-0.11-0.11-0.2-0.24-0.26-0.39c-0.06-0.15-0.09-0.3-0.09-0.47
		c0-0.36,0.12-0.65,0.35-0.88C144.63,237.27,144.92,237.16,145.27,237.16z M148.39,237.16c0.34,0,0.63,0.11,0.86,0.34
		c0.23,0.23,0.35,0.52,0.35,0.88c0,0.16-0.03,0.32-0.09,0.47c-0.06,0.15-0.15,0.28-0.26,0.39c-0.11,0.11-0.24,0.2-0.39,0.26
		c-0.15,0.07-0.31,0.1-0.48,0.1s-0.33-0.03-0.48-0.1c-0.15-0.07-0.28-0.15-0.39-0.26c-0.11-0.11-0.2-0.24-0.26-0.39
		c-0.06-0.15-0.09-0.3-0.09-0.47c0-0.36,0.12-0.65,0.35-0.88C147.75,237.27,148.04,237.16,148.39,237.16z"/>
	<path class="st0" d="M154.43,248.4h2.94v-12.46h2.24v13.59c0,0.31-0.11,0.57-0.32,0.79c-0.22,0.22-0.48,0.33-0.79,0.33h-4.07V248.4
		z"/>
	<path class="st0" d="M167.04,250.65h-3.93c-0.31,0-0.57-0.11-0.79-0.33c-0.22-0.22-0.32-0.48-0.32-0.79v-13.59h2.24v12.46h2.81
		V250.65z"/>
	<path class="st0" d="M182.32,238.17c-0.39,0-0.83,0-1.32,0.01s-1.01,0.03-1.55,0.08c-0.54,0.04-1.1,0.12-1.68,0.21
		c-0.58,0.1-1.15,0.24-1.71,0.42c-0.83,0.27-1.64,0.65-2.41,1.15s-1.45,1.15-2.02,1.97h5.56c1.13,0.01,2.11,0.12,2.94,0.35
		c0.83,0.22,1.55,0.52,2.14,0.88c0.59,0.36,1.08,0.77,1.46,1.23c0.38,0.46,0.68,0.92,0.91,1.4c0.22,0.47,0.39,0.94,0.48,1.39
		c0.1,0.45,0.16,0.86,0.19,1.21c0.03,0.36,0.03,0.75-0.01,1.19l-0.12,0.99H166.8v-2.24h16.25c-0.03-0.24-0.09-0.52-0.17-0.82
		c-0.08-0.3-0.21-0.61-0.39-0.91c-0.18-0.31-0.4-0.6-0.69-0.89c-0.28-0.29-0.64-0.54-1.06-0.77c-0.43-0.22-0.93-0.41-1.51-0.55
		c-0.58-0.14-1.27-0.21-2.05-0.22h-6.68v-0.01c-0.31,0-0.58-0.05-0.81-0.16c-0.23-0.11-0.41-0.25-0.55-0.43
		c-0.14-0.18-0.23-0.38-0.28-0.61c-0.04-0.23-0.03-0.47,0.03-0.71c0.35-0.78,0.77-1.47,1.24-2.07c0.48-0.6,1-1.12,1.56-1.57
		c0.56-0.45,1.16-0.83,1.78-1.14c0.62-0.31,1.26-0.57,1.9-0.78c0.65-0.2,1.29-0.36,1.93-0.47c0.64-0.11,1.26-0.19,1.86-0.24
		c0.6-0.05,1.17-0.08,1.7-0.09c0.53-0.01,1.01-0.01,1.45-0.01V238.17z"/>
	<path class="st0" d="M192.59,240.24c0.84,0,1.63,0.15,2.38,0.44c0.74,0.29,1.39,0.69,1.94,1.2c0.55,0.51,0.99,1.1,1.3,1.78
		c0.32,0.68,0.48,1.41,0.48,2.19c0.02,0.67-0.02,1.34-0.13,2c-0.11,0.66-0.29,1.3-0.54,1.92c-0.24,0.62-0.56,1.2-0.94,1.75
		c-0.38,0.55-0.83,1.05-1.35,1.5c-0.74,0.65-1.61,1.15-2.59,1.51c-0.98,0.36-2.08,0.55-3.3,0.56c-0.94,0-1.94-0.13-2.99-0.4
		l0.54-2.16c0.91,0.21,1.75,0.32,2.51,0.32c0.99,0,1.85-0.16,2.6-0.47c0.74-0.31,1.41-0.71,2.01-1.21l0.94-0.94
		c-0.59,0.39-1.19,0.67-1.82,0.84s-1.24,0.23-1.86,0.2c-0.61-0.04-1.2-0.17-1.78-0.39c-0.57-0.22-1.1-0.53-1.59-0.93
		c-0.61-0.49-1.09-1.09-1.42-1.81c-0.34-0.71-0.5-1.48-0.5-2.29c0-0.78,0.16-1.51,0.48-2.19c0.32-0.68,0.75-1.28,1.3-1.78
		c0.55-0.51,1.2-0.91,1.94-1.2C190.94,240.39,191.74,240.24,192.59,240.24z M192.59,242.47c-0.53,0-1.03,0.09-1.5,0.26
		c-0.47,0.18-0.88,0.42-1.23,0.72c-0.35,0.31-0.63,0.67-0.83,1.08c-0.2,0.41-0.31,0.85-0.31,1.32c0,0.47,0.1,0.9,0.31,1.31
		c0.2,0.41,0.48,0.77,0.83,1.07c0.35,0.31,0.76,0.55,1.23,0.72c0.47,0.18,0.97,0.26,1.5,0.26s1.03-0.09,1.5-0.27
		c0.47-0.18,0.88-0.42,1.23-0.73c0.35-0.31,0.63-0.66,0.83-1.07c0.2-0.41,0.31-0.84,0.31-1.3c0-0.47-0.1-0.9-0.31-1.31
		s-0.48-0.77-0.83-1.07c-0.35-0.31-0.76-0.55-1.23-0.73C193.62,242.56,193.12,242.47,192.59,242.47z"/>
</g>
</svg>
