<?xml version="1.0" encoding="utf-8"?>
<!-- Generator: Adobe Illustrator 25.4.1, SVG Export Plug-In . SVG Version: 6.00 Build 0)  -->
<svg version="1.1" id="Layer_1" xmlns="http://www.w3.org/2000/svg" xmlns:xlink="http://www.w3.org/1999/xlink" x="0px" y="0px"
	 viewBox="0 0 320.6 42.7" style="enable-background:new 0 0 320.6 42.7;" xml:space="preserve">
<style type="text/css">
	.st0{fill:#E7362C;}
	.st1{fill:#CAC9C9;}
</style>
<g>
	<path class="st0" d="M2.1,11.5h9.2v8.9c0,7.8,2.9,9.9,6.8,9.9c4,0,7-2,7-9.9v-8.9h9v10.1c0,10-5.7,16.9-16.3,16.9
		c-10.3,0-15.7-6.8-15.7-16.9V11.5L2.1,11.5z"/>
</g>
<rect x="2.1" y="8.4" class="st0" width="9.2" height="1.5"/>
<rect x="2.1" y="8.4" class="st0" width="9.2" height="1.5"/>
<rect x="2.1" y="5.5" class="st0" width="9.2" height="1.5"/>
<rect x="2.1" y="2.4" class="st0" width="9.2" height="1.5"/>
<g>
	<path class="st1" d="M18,2.4v7.7h-1.8l-1.1-3.5v3.5h-1.7V2.4h1.7l1.2,3.5V2.4H18z"/>
	<path class="st1" d="M18.8,2.4h3.4v1.5h-1.4v1.5h1.3v1.5h-1.3v1.7h1.5v1.5h-3.5V2.4z"/>
	<path class="st1" d="M30.7,2.4l-0.9,7.7h-2.6c-0.2-1.2-0.4-2.5-0.6-4c-0.1,0.7-0.3,2-0.6,4h-2.5l-0.9-7.7h2l0.2,2.7L25,7.7
		c0.1-1.3,0.3-3.1,0.6-5.3h2.1c0,0.2,0.1,1.1,0.2,2.5l0.2,2.9c0.1-1.9,0.3-3.7,0.6-5.5C28.7,2.4,30.7,2.4,30.7,2.4z"/>
	<path class="st1" d="M35.4,4.7h-1.9V4.2c0-0.3,0-0.4-0.1-0.5s-0.1-0.1-0.2-0.1c-0.1,0-0.2,0-0.3,0.2s-0.1,0.2-0.1,0.4
		c0,0.3,0,0.4,0.1,0.6C33,4.9,33.2,5,33.5,5.2c0.9,0.5,1.5,1,1.7,1.3c0.2,0.3,0.3,0.9,0.3,1.6c0,0.6-0.1,0.9-0.2,1.2S35,9.8,34.6,10
		c-0.4,0.2-0.8,0.3-1.3,0.3c-0.5,0-1-0.1-1.4-0.3c-0.4-0.2-0.6-0.5-0.8-0.8C31,8.9,31,8.4,31,7.8V7.3h1.9v0.9c0,0.3,0,0.5,0.1,0.6
		C33,8.9,33.1,9,33.2,9s0.2-0.1,0.3-0.2s0.1-0.3,0.1-0.5c0-0.5-0.1-0.8-0.2-0.9c-0.1-0.1-0.5-0.4-1-0.7c-0.5-0.3-0.9-0.6-1-0.7
		s-0.3-0.3-0.4-0.6c-0.1-0.3-0.2-0.6-0.2-1c0-0.6,0.1-1,0.2-1.3s0.4-0.5,0.8-0.6c0.3-0.2,0.8-0.2,1.3-0.2c0.5,0,1,0.1,1.4,0.2
		c0.4,0.2,0.6,0.4,0.7,0.6c0.1,0.3,0.2,0.7,0.2,1.3L35.4,4.7L35.4,4.7z"/>
</g>
<g>
	<g>
		<g>
			<path class="st1" d="M50.5,31.6v-11c0-0.9-0.2-1.6-0.5-2.1s-0.9-0.8-1.7-0.8c-0.5,0-1.1,0.1-1.6,0.5c-0.5,0.3-0.9,0.7-1.3,1.2
				c-0.4,0.5-0.6,1.1-0.8,1.8s-0.3,1.4-0.3,2.1v8.3H40V14.4h4.2c0,0.4,0,0.9,0,1.5S44,17,44,17.5h0c0.5-1,1.3-1.8,2.3-2.5
				c1-0.6,2.2-0.9,3.6-0.9c1,0,1.8,0.1,2.4,0.4s1.2,0.7,1.6,1.2c0.4,0.5,0.7,1.1,0.8,1.7c0.2,0.7,0.3,1.4,0.3,2.1v12.1L50.5,31.6
				L50.5,31.6z"/>
			<path class="st1" d="M73.8,21.3c0,0.3,0,0.7,0,1.2c0,0.5-0.1,0.9-0.1,1.3H63c0,1.5,0.4,2.7,1.1,3.5c0.8,0.8,2,1.2,3.6,1.2
				s3.3-0.3,5-1l0.5,3.4c-0.9,0.4-2,0.6-3,0.8s-2.1,0.3-3.2,0.3c-2.7,0-4.8-0.7-6.3-2.1s-2.2-3.6-2.2-6.7c0-1.3,0.2-2.5,0.5-3.6
				c0.4-1.1,0.9-2.1,1.6-2.9c0.7-0.8,1.6-1.5,2.6-1.9c1-0.5,2.1-0.7,3.4-0.7c1.2,0,2.3,0.2,3.2,0.6s1.6,0.9,2.2,1.6
				c0.6,0.7,1,1.4,1.3,2.3C73.7,19.4,73.8,20.3,73.8,21.3z M69.4,20.9c0.1-1.2-0.2-2.1-0.7-2.7s-1.3-0.9-2.2-0.9
				c-0.9,0-1.7,0.3-2.3,1c-0.6,0.6-1,1.5-1.1,2.6H69.4z"/>
			<path class="st1" d="M96.8,31.6H92L89.5,24c-0.2-0.6-0.3-1.2-0.5-1.8c-0.2-0.6-0.3-1.3-0.5-2h0c-0.2,0.8-0.4,1.5-0.6,2.2
				c-0.2,0.7-0.4,1.4-0.6,2.1l-2.2,7.2h-4.6l-5.3-17.2h4.8l1.8,6.5c0.2,0.9,0.5,1.7,0.7,2.6s0.4,1.7,0.7,2.6h0
				c0.2-1,0.4-1.9,0.6-2.6s0.4-1.6,0.7-2.3l2.1-6.7H91l2.1,6.5c0.3,1,0.6,1.9,0.8,2.7c0.2,0.8,0.4,1.6,0.6,2.5h0.1
				c0.2-0.9,0.4-1.7,0.6-2.5s0.4-1.6,0.6-2.5l2-6.7h4.5L96.8,31.6z"/>
			<path class="st1" d="M115.2,26.2c0,0.9-0.2,1.6-0.5,2.3c-0.4,0.7-0.9,1.3-1.5,1.8s-1.5,0.9-2.4,1.2s-2,0.4-3.1,0.4
				c-0.7,0-1.3,0-2-0.1c-0.7-0.1-1.3-0.2-1.8-0.4l0.3-3.7c0.5,0.2,1.1,0.4,1.8,0.5c0.6,0.1,1.3,0.2,1.9,0.2c0.8,0,1.5-0.2,2-0.5
				s0.8-0.8,0.8-1.4c0-0.5-0.2-0.9-0.5-1.2s-0.8-0.5-1.3-0.7c-0.5-0.2-1.1-0.4-1.7-0.6c-0.6-0.2-1.2-0.5-1.7-0.9s-0.9-0.8-1.3-1.4
				c-0.3-0.6-0.5-1.4-0.5-2.3c0-0.8,0.1-1.5,0.4-2.1s0.7-1.2,1.3-1.7c0.6-0.5,1.4-0.9,2.3-1.2c0.9-0.3,2-0.4,3.2-0.4
				c0.5,0,1,0,1.6,0.1c0.6,0.1,1.1,0.1,1.6,0.3l-0.2,3.5c-0.5-0.1-1-0.2-1.5-0.3s-1.1-0.1-1.6-0.1c-0.9,0-1.5,0.2-1.9,0.5
				s-0.6,0.8-0.6,1.3c0,0.5,0.2,0.9,0.5,1.1c0.3,0.3,0.8,0.5,1.3,0.7c0.5,0.2,1.1,0.4,1.7,0.6s1.2,0.5,1.7,0.9
				c0.5,0.4,1,0.8,1.3,1.4C115,24.5,115.2,25.3,115.2,26.2z"/>
			<path class="st1" d="M141.9,15.3c0,1.2-0.2,2.3-0.6,3.3c-0.4,1-1,1.9-1.8,2.6c-0.8,0.7-1.8,1.3-2.9,1.8c-1.1,0.4-2.5,0.6-4,0.6
				c-0.2,0-0.4,0-0.6,0s-0.4,0-0.5,0c-0.2,0-0.4,0-0.5,0v8.1h-4.5V8.2c0.6,0,1.3-0.1,2-0.1c0.6,0,1.3,0,2.1-0.1c0.8,0,1.6,0,2.4,0
				c2.9,0,5.1,0.6,6.6,1.9C141.1,11.2,141.9,13,141.9,15.3z M137.2,15.7c0-1.3-0.4-2.2-1.1-2.9s-1.9-1-3.4-1c-0.2,0-0.4,0-0.6,0
				s-0.4,0-0.5,0H131v7.8c0.2,0,0.4,0.1,0.6,0.1c0.2,0,0.4,0,0.6,0c0.2,0,0.5,0,0.7,0c1.4,0,2.5-0.4,3.2-1.1
				C136.8,18,137.2,17,137.2,15.7z"/>
			<path class="st1" d="M154.2,18.4c-3.2-0.6-4.8,1.4-4.8,6.2v7h-4.4V14.4h4.2c0,0.4,0,1-0.1,1.6c-0.1,0.6-0.1,1.2-0.2,1.8h0.1
				c0.2-0.5,0.5-1.1,0.8-1.6c0.3-0.5,0.7-0.9,1.1-1.3c0.4-0.4,1-0.6,1.6-0.8s1.2-0.2,2-0.2L154.2,18.4z"/>
			<path class="st1" d="M171.1,21.3c0,0.3,0,0.7,0,1.2c0,0.5-0.1,0.9-0.1,1.3h-10.6c0,1.5,0.4,2.7,1.1,3.5s2,1.2,3.6,1.2
				s3.3-0.3,5-1l0.5,3.4c-0.9,0.4-1.9,0.6-3,0.8c-1.1,0.2-2.1,0.3-3.2,0.3c-2.7,0-4.8-0.7-6.3-2.1c-1.5-1.4-2.2-3.6-2.2-6.7
				c0-1.3,0.2-2.5,0.6-3.6c0.4-1.1,0.9-2.1,1.6-2.9c0.7-0.8,1.6-1.5,2.6-1.9s2.1-0.7,3.4-0.7c1.2,0,2.3,0.2,3.2,0.6s1.6,0.9,2.2,1.6
				s1,1.4,1.3,2.3C171,19.4,171.1,20.3,171.1,21.3z M166.7,20.9c0.1-1.2-0.2-2.1-0.7-2.7c-0.5-0.6-1.3-0.9-2.2-0.9
				c-0.9,0-1.7,0.3-2.3,1c-0.6,0.6-1,1.5-1.1,2.6H166.7z"/>
			<path class="st1" d="M185.5,26.2c0,0.9-0.2,1.6-0.5,2.3c-0.4,0.7-0.9,1.3-1.5,1.8s-1.5,0.9-2.4,1.2s-2,0.4-3.1,0.4
				c-0.7,0-1.3,0-2-0.1c-0.7-0.1-1.3-0.2-1.8-0.4l0.3-3.7c0.5,0.2,1.1,0.4,1.8,0.5c0.6,0.1,1.3,0.2,1.9,0.2c0.8,0,1.5-0.2,2-0.5
				s0.8-0.8,0.8-1.4c0-0.5-0.2-0.9-0.5-1.2s-0.8-0.5-1.3-0.7c-0.5-0.2-1.1-0.4-1.7-0.6c-0.6-0.2-1.2-0.5-1.7-0.9
				c-0.5-0.4-0.9-0.8-1.3-1.4s-0.5-1.4-0.5-2.3c0-0.8,0.1-1.5,0.4-2.1s0.7-1.2,1.4-1.7c0.6-0.5,1.4-0.9,2.3-1.2s2-0.4,3.2-0.4
				c0.5,0,1,0,1.6,0.1c0.6,0.1,1.1,0.1,1.6,0.3l-0.2,3.5c-0.5-0.1-1-0.2-1.5-0.3c-0.5-0.1-1.1-0.1-1.6-0.1c-0.9,0-1.5,0.2-1.9,0.5
				s-0.6,0.8-0.6,1.3c0,0.5,0.2,0.9,0.5,1.1c0.4,0.3,0.8,0.5,1.3,0.7c0.5,0.2,1.1,0.4,1.7,0.6s1.2,0.5,1.7,0.9
				c0.5,0.4,1,0.8,1.3,1.4C185.4,24.5,185.5,25.3,185.5,26.2z"/>
			<path class="st1" d="M200,26.2c0,0.9-0.2,1.6-0.5,2.3c-0.4,0.7-0.9,1.3-1.5,1.8s-1.5,0.9-2.4,1.2c-0.9,0.3-2,0.4-3.1,0.4
				c-0.7,0-1.3,0-2-0.1c-0.7-0.1-1.3-0.2-1.8-0.4l0.3-3.7c0.5,0.2,1.1,0.4,1.8,0.5c0.6,0.1,1.3,0.2,1.9,0.2c0.8,0,1.5-0.2,2-0.5
				s0.8-0.8,0.8-1.4c0-0.5-0.2-0.9-0.5-1.2s-0.8-0.5-1.3-0.7c-0.5-0.2-1.1-0.4-1.7-0.6c-0.6-0.2-1.2-0.5-1.7-0.9
				c-0.5-0.4-0.9-0.8-1.3-1.4s-0.5-1.4-0.5-2.3c0-0.8,0.1-1.5,0.4-2.1s0.7-1.2,1.4-1.7c0.6-0.5,1.4-0.9,2.3-1.2s2-0.4,3.2-0.4
				c0.5,0,1,0,1.6,0.1c0.6,0.1,1.1,0.1,1.6,0.3l-0.2,3.5c-0.5-0.1-1-0.2-1.5-0.3c-0.5-0.1-1.1-0.1-1.6-0.1c-0.9,0-1.5,0.2-1.9,0.5
				s-0.6,0.8-0.6,1.3c0,0.5,0.2,0.9,0.5,1.1c0.4,0.3,0.8,0.5,1.3,0.7c0.5,0.2,1.1,0.4,1.7,0.6s1.2,0.5,1.7,0.9
				c0.5,0.4,1,0.8,1.3,1.4C199.8,24.5,200,25.3,200,26.2z"/>
			<path class="st1" d="M225.5,31.6l-1.6-4.8H215l-1.6,4.8h-4.5l8.1-23.4h5.3l8.2,23.4H225.5z M220.4,16.2c-0.2-0.6-0.4-1.1-0.5-1.6
				c-0.2-0.5-0.3-1-0.4-1.6h0c-0.1,0.5-0.3,1.1-0.4,1.6s-0.3,1.1-0.5,1.6l-2.4,7h6.6L220.4,16.2z"/>
			<path class="st1" d="M248.3,33.4c0,0.9-0.2,1.8-0.7,2.6c-0.4,0.8-1.1,1.6-1.9,2.2s-1.8,1.1-3,1.5c-1.2,0.4-2.5,0.5-3.9,0.5
				c-2.3,0-4.1-0.4-5.4-1.3s-1.9-2.1-1.9-3.8c0-0.9,0.3-1.7,0.8-2.5c0.5-0.8,1.1-1.3,1.9-1.7c-0.5-0.2-0.9-0.6-1.2-1
				c-0.3-0.5-0.4-1-0.4-1.6c0-0.7,0.2-1.3,0.6-1.9c0.4-0.6,0.9-1,1.5-1.2c-0.8-0.4-1.4-1-1.9-1.8s-0.7-1.7-0.7-2.9
				c0-0.9,0.2-1.7,0.5-2.5c0.3-0.8,0.8-1.5,1.4-2.1c0.6-0.6,1.4-1.1,2.4-1.4c0.9-0.4,2-0.5,3.3-0.5c0.6,0,1,0,1.5,0.1
				c0.4,0.1,0.9,0.2,1.3,0.3h5.9v3.5h-2.4c0.6,0.5,0.9,1.3,0.9,2.2s-0.1,1.8-0.5,2.5c-0.3,0.8-0.8,1.4-1.4,2s-1.4,1-2.3,1.3
				c-0.9,0.3-2,0.5-3.2,0.5c-0.5,0-0.9,0-1.4-0.1c-0.3,0.1-0.5,0.3-0.6,0.5c-0.1,0.2-0.2,0.4-0.2,0.6c0,0.4,0.2,0.7,0.6,0.8
				s1.1,0.2,2.1,0.3l2.7,0.1c1.9,0.1,3.3,0.5,4.3,1.3C247.8,30.5,248.3,31.7,248.3,33.4z M243.9,34c0-0.6-0.2-1.1-0.6-1.5
				c-0.4-0.4-1.1-0.6-2.1-0.7l-3-0.1h-0.8c-0.5,0.4-0.9,0.8-1.2,1.2s-0.4,0.9-0.4,1.4c0,0.8,0.3,1.4,1,1.9s1.6,0.7,2.7,0.7
				c1.4,0,2.6-0.3,3.3-0.8C243.5,35.5,243.9,34.8,243.9,34z M242.4,20.3c0-0.9-0.3-1.7-0.8-2.2s-1.3-0.8-2.3-0.8
				c-1,0-1.8,0.3-2.4,0.9s-0.8,1.3-0.8,2.2c0,0.9,0.3,1.6,0.8,2.2s1.3,0.8,2.4,0.8c1,0,1.7-0.3,2.3-0.8
				C242.2,21.9,242.4,21.2,242.4,20.3z"/>
			<path class="st1" d="M265.4,21.3c0,0.3,0,0.7,0,1.2c0,0.5-0.1,0.9-0.1,1.3h-10.6c0,1.5,0.4,2.7,1.1,3.5s2,1.2,3.6,1.2
				c1.7,0,3.3-0.3,5-1l0.5,3.4c-1,0.4-2,0.6-3,0.8c-1.1,0.2-2.1,0.3-3.2,0.3c-2.7,0-4.8-0.7-6.3-2.1c-1.5-1.4-2.2-3.6-2.2-6.7
				c0-1.3,0.2-2.5,0.6-3.6c0.4-1.1,0.9-2.1,1.6-2.9c0.7-0.8,1.6-1.5,2.6-1.9s2.2-0.7,3.4-0.7c1.2,0,2.3,0.2,3.2,0.6s1.6,0.9,2.2,1.6
				c0.6,0.7,1,1.4,1.3,2.3C265.3,19.4,265.4,20.3,265.4,21.3z M261,20.9c0-1.2-0.2-2.1-0.7-2.7c-0.5-0.6-1.3-0.9-2.2-0.9
				c-0.9,0-1.7,0.3-2.3,1c-0.6,0.6-1,1.5-1.1,2.6H261z"/>
			<path class="st1" d="M279.7,31.6v-11c0-0.9-0.1-1.6-0.5-2.1c-0.3-0.5-0.9-0.8-1.7-0.8c-0.5,0-1.1,0.1-1.6,0.5
				c-0.5,0.3-0.9,0.7-1.3,1.2c-0.4,0.5-0.6,1.1-0.9,1.8s-0.3,1.4-0.3,2.1v8.3h-4.4V14.4h4.2c0,0.4,0,0.9,0,1.5s-0.1,1.1-0.2,1.6h0
				c0.5-1,1.3-1.8,2.3-2.5c1-0.6,2.2-0.9,3.6-0.9c1,0,1.8,0.1,2.4,0.4s1.2,0.7,1.6,1.2c0.4,0.5,0.7,1.1,0.9,1.7
				c0.2,0.7,0.3,1.4,0.3,2.1v12.1L279.7,31.6L279.7,31.6z"/>
			<path class="st1" d="M298,31.7c-0.9,0.1-1.7,0.2-2.5,0.2c-1.2,0-2.3-0.2-3.2-0.5c-1-0.3-1.8-0.8-2.4-1.5s-1.2-1.5-1.5-2.6
				c-0.4-1.1-0.5-2.3-0.5-3.8c0-1.3,0.2-2.6,0.5-3.7c0.4-1.1,0.9-2.2,1.6-3c0.7-0.8,1.6-1.5,2.7-2c1.1-0.5,2.4-0.7,3.9-0.7
				c0.7,0,1.3,0.1,2,0.2c0.6,0.1,1.2,0.2,1.8,0.4l-0.7,3.8c-0.5-0.2-1-0.3-1.5-0.5s-1.1-0.2-1.7-0.2c-1.3,0-2.3,0.5-3,1.5
				c-0.7,1-1,2.2-1,3.8c0,0.7,0.1,1.4,0.2,2c0.1,0.6,0.4,1.1,0.7,1.6c0.3,0.4,0.7,0.8,1.2,1s1.1,0.4,1.9,0.4c1.2,0,2.3-0.2,3.4-0.7
				l0.6,3.7C299.6,31.3,298.8,31.5,298,31.7z"/>
			<path class="st1" d="M311.6,32.5c-0.5,1.5-1.1,2.7-1.7,3.7s-1.2,1.8-1.9,2.3c-0.7,0.6-1.5,1-2.3,1.2c-0.8,0.2-1.7,0.4-2.7,0.4
				c-0.4,0-0.8,0-1.2-0.1c-0.5,0-0.9-0.1-1.2-0.2l0.5-3.8c0.3,0.1,0.7,0.2,1.1,0.3c0.4,0.1,0.8,0.1,1.1,0.1c0.4,0,0.7,0,1.1-0.2
				c0.4-0.1,0.7-0.3,1.1-0.5c0.3-0.2,0.7-0.6,1-1c0.3-0.4,0.6-1,0.8-1.7l0.5-1.5l-6.4-17.2h5l2.3,6.6c0.2,0.7,0.5,1.5,0.7,2.3
				c0.2,0.8,0.4,1.6,0.6,2.4h0c0.1-0.4,0.2-0.8,0.4-1.3c0.1-0.5,0.3-1,0.4-1.4c0.1-0.5,0.3-1,0.5-1.4c0.1-0.5,0.3-0.9,0.4-1.3l2-5.8
				h4.7L311.6,32.5z"/>
		</g>
	</g>
</g>
</svg>
